<svg xmlns="http://www.w3.org/2000/svg" viewBox="0 0 256 256">
  <defs>
    <linearGradient id="g" x1="0" y1="0" x2="1" y2="1">
      <stop offset="0" stop-color="#6366f1"></stop>
      <stop offset="1" stop-color="#a855f7"></stop>
    </linearGradient>
    <filter id="s" x="-20%" y="-20%" width="140%" height="140%">
      <feDropShadow dx="0" dy="6" stdDeviation="8" flood-color="#000" flood-opacity=".18"></feDropShadow>
    </filter>
  </defs>

  <!-- rounded squircle background -->
  <rect x="12" y="12" width="232" height="232" rx="56" fill="url(#g)"></rect>

  <!-- magnifier mark (C + dot) -->
  <g transform="translate(16 16)" filter="url(#s)">
    <!-- C shape -->
    <path d="M120 54c-36 0-66 30-66 66s30 66 66 66c17 0 33-6 45-18l12 12c6 6 16 6 22 0s6-16 0-22l-12-12c12-12 18-28 18-45 0-36-30-66-66-66z" fill="none" stroke="#fff" stroke-width="14" stroke-linecap="round" stroke-linejoin="round" opacity="0.95"></path>
    <!-- dot -->
    <circle cx="178" cy="178" r="14" fill="#fff" opacity="0.95"></circle>
  </g>
</svg>
